<svg xmlns="http://www.w3.org/2000/svg" width="20.727" height="19" viewBox="0 0 20.727 19"><path d="M20.619,6.642a3.349,3.349,0,0,0-1.57-2L12.681,1.615a4.518,4.518,0,0,0-4.563-.039l-6.44,3.07c-.024.012-.049.025-.073.039a3.183,3.183,0,0,0,.073,5.569l1.777.845v4.227a4.32,4.32,0,0,0,3.039,4.122,13.449,13.449,0,0,0,3.87.528,13.449,13.449,0,0,0,3.87-.524,4.32,4.32,0,0,0,3.039-4.122V11.1L19,10.273v7.116a.864.864,0,0,0,1.727,0V7.036a.836.836,0,0,0-.108-.394Zm-5.074,8.689a2.588,2.588,0,0,1-1.814,2.47,11.751,11.751,0,0,1-3.368.45A11.751,11.751,0,0,1,7,17.8a2.588,2.588,0,0,1-1.814-2.47V11.922l2.865,1.363a4.557,4.557,0,0,0,2.336.638,4.322,4.322,0,0,0,2.226-.6l2.937-1.4ZM18.309,8.7,11.8,11.8a2.847,2.847,0,0,1-2.928-.039L2.5,8.735a1.459,1.459,0,0,1-.032-2.552L8.936,3.1a2.853,2.853,0,0,1,2.928.039l6.368,3.031A1.491,1.491,0,0,1,19,7.45,1.466,1.466,0,0,1,18.309,8.7Z" transform="translate(0 -0.978)"/></svg>