<svg xmlns="http://www.w3.org/2000/svg" width="11.084" height="14" viewBox="0 0 11.084 14"><defs><style>.a{fill:#a8a8a8;}</style></defs><path class="a" d="M7.667,7a.583.583,0,1,1,0,1.167H5.917A.583.583,0,1,1,5.917,7Zm3.5-1.75a.583.583,0,0,0-.583-.583H5.917a.583.583,0,1,0,0,1.167h4.667A.583.583,0,0,0,11.167,5.25ZM5.917,3.5h4.667a.583.583,0,1,0,0-1.167H5.917a.583.583,0,1,0,0,1.167Zm7,7.843v2.236a.421.421,0,0,1-.718.3l-.449-.448-.449.448a.421.421,0,0,1-.718-.3V11.343A2.326,2.326,0,0,1,11.751,7a2.3,2.3,0,0,1,.583.083V2.917a1.75,1.75,0,0,0-1.75-1.75H5.917a1.75,1.75,0,0,0-1.75,1.75v7a1.75,1.75,0,0,0,1.75,1.75H8.834a.583.583,0,0,1,0,1.167H5.917A2.92,2.92,0,0,1,3,9.917v-7A2.92,2.92,0,0,1,5.917,0h4.667A2.92,2.92,0,0,1,13.5,2.917v4.89a2.3,2.3,0,0,1-.583,3.536Zm0-2.009A1.167,1.167,0,1,0,11.751,10.5,1.167,1.167,0,0,0,12.917,9.334Z" transform="translate(-3)"/></svg>